<svg width="63" height="64" viewBox="0 0 63 64" fill="none" xmlns="http://www.w3.org/2000/svg">
<g clip-path="url(#clip0_6291_2747)">
<g clip-path="url(#clip1_6291_2747)">
<g clip-path="url(#clip2_6291_2747)">
<path d="M3.46191 -1.76119H1.70072V0V56.3582V58.1194H3.46191H59.8201H61.5813V56.3582V0V-1.76119H59.8201H3.46191Z" fill="#FFD600" stroke="white" stroke-width="3.52239"/>
<path d="M33.7753 23.9588H36.8888V27.8557L45.7503 33.7428H41.1357L29.2481 26.1697L17.3486 33.7428H12.7339L29.2481 22.7539L33.7753 25.774V23.9588Z" fill="white"/>
<path d="M11.9206 37.0166C11.915 36.9567 11.9214 36.8963 11.9395 36.839C11.9576 36.7816 11.987 36.7284 12.026 36.6826C12.069 36.6448 12.1191 36.6161 12.1734 36.598C12.2277 36.5799 12.285 36.5728 12.3421 36.5772C12.6264 36.5772 12.7696 36.7303 12.7696 37.0345V43.2119C12.7775 43.3377 12.7393 43.4621 12.6622 43.5618C12.5702 43.6303 12.4587 43.6672 12.3441 43.6672C12.2295 43.6672 12.1179 43.6303 12.026 43.5618C11.9496 43.4618 11.9121 43.3375 11.9206 43.2119V37.0166ZM11.9206 32.7618H9.47705L9.45916 32.7717V45.0749H11.3162L11.5309 44.7349L11.9743 45.0331C12.2886 45.1644 12.628 45.2248 12.9684 45.2101C13.6881 45.2101 14.2607 45.0285 14.6862 44.6653C14.8533 44.5358 14.9892 44.3705 15.0842 44.1817C15.1791 43.9928 15.2307 43.7851 15.2349 43.5738V36.4162C15.2352 36.2215 15.1887 36.0296 15.0995 35.8567C15.0102 35.6837 14.8808 35.5346 14.722 35.4221C14.3573 35.1436 13.9059 35.0027 13.4475 35.0244C13.1383 35.0207 12.8297 35.0507 12.527 35.1139C12.3087 35.1598 12.1044 35.2565 11.9305 35.3962L11.9206 32.7618ZM50.7943 41.0626H48.3349V43.192C48.3349 43.9409 48.6239 44.4804 49.2018 44.8104C49.673 45.0808 50.3351 45.2081 51.19 45.2081C52.0449 45.2081 52.7488 45.055 53.2438 44.7488C53.8204 44.3989 54.1087 43.8475 54.1087 43.0946V41.6014C54.1225 41.3526 54.0842 41.1037 53.9962 40.8705C53.9082 40.6373 53.7725 40.4251 53.5977 40.2475C53.4334 40.0818 53.0026 39.8167 52.3054 39.4522L51.3491 38.9432C51.1835 38.847 51.047 38.708 50.954 38.5407C50.8609 38.3734 50.8147 38.1842 50.8202 37.9928V37.0603C50.8148 36.9936 50.8229 36.9264 50.8441 36.8629C50.8652 36.7993 50.899 36.7407 50.9435 36.6905C50.9826 36.6508 51.0294 36.6194 51.081 36.5982C51.1326 36.577 51.1879 36.5665 51.2437 36.5673C51.2984 36.5686 51.3522 36.5822 51.401 36.6069C51.4499 36.6317 51.4926 36.667 51.526 36.7104C51.5698 36.757 51.6035 36.8121 51.6251 36.8723C51.6466 36.9325 51.6556 36.9965 51.6513 37.0603V39.0128H54.057V37.0425C54.057 36.2929 53.7787 35.7541 53.2279 35.426C52.7647 35.1556 52.1086 35.0284 51.2596 35.0284C50.4106 35.0284 49.7088 35.1815 49.2256 35.4857C48.6729 35.8396 48.3965 36.391 48.3965 37.1399V38.4779C48.3727 38.865 48.4783 39.249 48.6968 39.5695C49.0333 39.9177 49.4292 40.2032 49.8658 40.4125C50.2635 40.6232 50.6731 40.8479 51.1224 41.0825C51.4405 41.2813 51.5976 41.7207 51.5976 42.4007V43.1741C51.6058 43.3111 51.5696 43.4471 51.4942 43.5618C51.461 43.6047 51.4176 43.6386 51.3679 43.6605C51.3183 43.6824 51.2639 43.6915 51.2099 43.6871C51.1536 43.6905 51.0973 43.681 51.0452 43.6593C50.9932 43.6375 50.9468 43.6042 50.9097 43.5618C50.8321 43.448 50.7943 43.3117 50.8023 43.1741L50.7943 41.0626ZM44.8297 35.098H42.3643V45.0729H44.8177V37.0524C44.8122 36.9927 44.8189 36.9324 44.8374 36.8754C44.8558 36.8183 44.8857 36.7656 44.9251 36.7204C44.9684 36.6818 45.0191 36.6524 45.0742 36.6339C45.1292 36.6154 45.1874 36.6083 45.2452 36.613C45.5255 36.613 45.6687 36.7661 45.6687 37.0703V39.2355H48.1281V36.452C48.1276 36.2574 48.0807 36.0659 47.9916 35.893C47.9024 35.7202 47.7734 35.571 47.6152 35.4578C47.2566 35.1668 46.8042 35.0162 46.3427 35.0343C46.0308 35.0304 45.72 35.0719 45.4202 35.1576C45.2038 35.21 45.0006 35.3068 44.8237 35.4419L44.8297 35.098ZM38.2447 37.0683C38.2392 37.0015 38.2474 36.9344 38.2685 36.8708C38.2897 36.8073 38.3235 36.7486 38.3679 36.6985C38.451 36.6178 38.5623 36.5727 38.6781 36.5727C38.7939 36.5727 38.9052 36.6178 38.9883 36.6985C39.065 36.8058 39.1016 36.9367 39.0916 37.0683V39.3667H38.2447V37.0683ZM35.7852 37.1379V43.1026C35.7852 43.866 36.0676 44.4234 36.6322 44.7747C37.1054 45.0689 37.7788 45.216 38.6523 45.216C39.5231 45.216 40.1971 45.0808 40.6663 44.8184C40.9514 44.6593 41.1857 44.4231 41.3426 44.1368C41.4995 43.8505 41.5724 43.5258 41.5531 43.2V41.168H39.0857V43.1761C39.0937 43.3125 39.0574 43.4478 38.9823 43.5618C38.9415 43.6056 38.8913 43.6396 38.8356 43.6613C38.7798 43.683 38.7199 43.6918 38.6602 43.6871C38.6012 43.6912 38.542 43.6821 38.487 43.6604C38.432 43.6387 38.3825 43.6051 38.3421 43.5618C38.267 43.4478 38.2307 43.3125 38.2387 43.1761V40.8539H41.5471V37.0524C41.5471 36.3028 41.2489 35.764 40.6604 35.436C40.1766 35.1709 39.5052 35.0383 38.6463 35.0383C37.7874 35.0383 37.1087 35.1908 36.6103 35.4956C36.0563 35.8495 35.7793 36.4009 35.7793 37.1498L35.7852 37.1379ZM31.6517 37.0444C31.6517 36.7402 31.7909 36.5872 32.0752 36.5872C32.1312 36.5844 32.1872 36.594 32.2391 36.6153C32.291 36.6366 32.3375 36.6691 32.3754 36.7104C32.4184 36.7506 32.4519 36.7998 32.4736 36.8544C32.4952 36.9091 32.5045 36.9679 32.5007 37.0265V43.2219C32.5077 43.3476 32.4696 43.4716 32.3933 43.5718C32.3498 43.6094 32.2993 43.6381 32.2448 43.6561C32.1902 43.6742 32.1326 43.6814 32.0752 43.6772C32.0178 43.6817 31.9601 43.6747 31.9055 43.6566C31.8509 43.6385 31.8004 43.6097 31.7571 43.5718C31.6807 43.4718 31.6432 43.3474 31.6517 43.2219V37.0444ZM29.1903 36.4301V43.5877C29.1943 43.8099 29.2489 44.0284 29.3498 44.2265C29.4507 44.4245 29.5954 44.597 29.7728 44.7309C30.1705 45.061 30.7371 45.224 31.4549 45.224C31.7997 45.2386 32.1437 45.1782 32.4629 45.047C32.6105 44.9511 32.7526 44.8469 32.8884 44.7349L33.0991 45.0689H34.9601V32.7618H32.5007V35.4002C32.3116 35.2739 32.1005 35.1842 31.8784 35.1357C31.5839 35.0622 31.2812 35.0261 30.9777 35.0284C30.5137 35.0059 30.0565 35.1466 29.6854 35.426C29.5307 35.5413 29.4053 35.6914 29.3193 35.8641C29.2333 36.0367 29.1891 36.2272 29.1903 36.4201V36.4301ZM28.3731 32.7598H25.9117V45.0749H28.3731V32.7598ZM25.0946 35.098H22.6331V45.0749H25.0946V35.098ZM25.0946 32.7618H22.6331V34.5512H25.0946V32.7618ZM18.5076 35.1H16.0461V43.8243C16.0453 44.0171 16.0896 44.2075 16.1756 44.3801C16.2616 44.5528 16.3868 44.7029 16.5412 44.8184C16.9141 45.0943 17.3701 45.2346 17.8336 45.216C18.1462 45.2222 18.4576 45.1744 18.7541 45.0749C18.9745 45.0075 19.1779 44.8936 19.3506 44.7409V45.0749H21.816V35.1H19.3565V43.2278C19.3633 43.3486 19.325 43.4676 19.2492 43.5618C19.2057 43.5995 19.1552 43.6281 19.1006 43.6462C19.046 43.6643 18.9884 43.6714 18.9311 43.6672C18.6467 43.6672 18.5076 43.5141 18.5076 43.2119V35.1ZM56.3494 46.3255H6.9361V34.4538L9.46313 32.7658V32.7558H9.48103L29.2977 19.5242L31.8823 21.242H39.4376V26.2842L47.987 31.9924H56.3494V46.3255ZM56.9459 31.4138H48.1659L40.0142 25.982V20.6575H32.0414L29.2857 18.8164L6.33765 34.1436V46.9219H56.9459V31.4138Z" fill="#231F20"/>
</g>
<rect x="2.14175" y="-1.3209" width="59" height="59" stroke="white" stroke-width="2.64179"/>
</g>
</g>
<defs>
<clipPath id="clip0_6291_2747">
<rect width="62" height="64" fill="white" transform="translate(0.820801)"/>
</clipPath>
<clipPath id="clip1_6291_2747">
<rect width="61.6418" height="59" fill="white" transform="translate(0.820801)"/>
</clipPath>
<clipPath id="clip2_6291_2747">
<rect x="3.46265" width="56.3582" height="56.3582" fill="white"/>
</clipPath>
</defs>
</svg>
